<?xml version="1.0" standalone="no"?>
<!DOCTYPE svg PUBLIC "-//W3C//DTD SVG 20010904//EN" "http://www.w3.org/TR/2001/REC-SVG-20010904/DTD/svg10.dtd">
<svg xmlns="http://www.w3.org/2000/svg" version="1.0" width="1024.000000pt" height="1024.000000pt" viewBox="0 0 1024.000000 1024.000000" preserveAspectRatio="xMidYMid meet">
<metadata>
Created by potrace 1.16, written by Peter Selinger 2001-2019
<meta name="Producer" content="Online-Convert"/></metadata>
<g transform="translate(0.000000,1024.000000) scale(0.100000,-0.100000)" fill="#000000" stroke="none">
<path d="M3825 9844 c-43 -22 -94 -73 -116 -116 -24 -47 -58 -176 -109 -418 -23 -107 -45 -213 -50 -235 -6 -22 -69 -310 -141 -640 -159 -734 -171 -783 -204 -870 -14 -38 -118 -251 -231 -472 -113 -222 -216 -433 -230 -471 -31 -81 -42 -193 -24 -248 27 -81 86 -141 172 -171 55 -20 197 -27 271 -15 31 5 57 6 57 3 -1 -3 -115 -154 -255 -336 -140 -181 -262 -349 -271 -372 -21 -54 -12 -103 27 -147 16 -19 88 -78 159 -132 l129 -99 -33 -35 c-30 -32 -165 -191 -492 -580 -91 -108 -157 -176 -229 -233 -418 -337 -539 -451 -654 -610 -39 -55 -88 -111 -109 -126 -150 -109 -363 -336 -579 -615 -204 -264 -570 -751 -592 -787 -47 -77 -3 -170 82 -169 34 1 54 22 197 210 74 96 159 207 190 245 31 39 126 162 211 275 l154 205 0 -115 c0 -123 7 -151 57 -231 32 -52 118 -116 190 -144 71 -26 205 -18 281 17 56 26 160 120 220 198 39 52 -47 -137 -218 -475 -193 -381 -303 -577 -649 -1154 -250 -416 -296 -500 -296 -532 0 -97 122 -137 192 -62 23 26 450 600 943 1268 109 149 269 365 355 480 86 116 313 424 505 685 207 281 377 503 417 543 68 67 171 141 188 135 6 -2 -31 -68 -81 -148 -189 -301 -229 -424 -187 -585 31 -123 166 -251 324 -306 49 -17 76 -20 159 -17 88 4 107 8 160 35 33 17 86 57 117 88 60 59 178 209 243 308 21 31 40 55 42 53 7 -7 -44 -123 -92 -211 -42 -77 -108 -175 -230 -340 -28 -38 -238 -324 -465 -635 -228 -311 -475 -648 -550 -750 -226 -307 -346 -474 -358 -497 -37 -69 15 -153 93 -153 45 0 18 -34 691 885 61 83 270 366 465 630 195 264 415 563 488 665 230 318 298 405 371 473 59 56 165 126 175 115 1 -2 -31 -57 -72 -123 -191 -304 -231 -427 -187 -576 34 -117 114 -203 248 -270 143 -70 274 -74 389 -11 62 33 173 151 257 271 100 144 103 147 81 81 -24 -73 -60 -143 -204 -400 -315 -562 -654 -1151 -888 -1539 -22 -36 -39 -78 -39 -93 0 -49 26 -86 69 -99 73 -22 85 -7 281 318 190 315 283 472 458 773 125 214 198 316 275 386 49 44 95 75 84 57 -245 -421 -251 -434 -252 -573 0 -94 3 -111 27 -160 47 -95 138 -173 268 -230 46 -20 71 -24 150 -24 82 0 102 4 151 27 31 15 77 46 103 68 47 42 177 209 223 287 14 24 27 41 30 38 11 -11 -191 -489 -317 -749 -60 -124 -61 -157 -9 -201 34 -29 67 -33 108 -12 51 27 281 525 374 812 72 219 90 357 67 501 -9 54 -8 68 11 115 72 183 98 452 52 550 -31 67 -104 142 -166 169 -69 30 -177 30 -262 0 -116 -42 -250 -151 -333 -273 -28 -40 -40 -49 -89 -63 -32 -9 -70 -23 -85 -31 -16 -8 -28 -12 -28 -9 0 2 23 49 50 104 60 120 115 279 131 381 13 82 7 226 -12 306 -11 48 -10 54 24 141 49 123 80 279 74 363 -15 175 -111 302 -266 347 -152 44 -368 -71 -522 -278 l-51 -68 -98 -31 c-148 -46 -292 -129 -432 -251 l-48 -41 0 36 c0 19 -5 69 -11 110 -11 73 -11 77 20 150 39 95 69 219 77 321 22 273 -188 485 -429 435 -135 -28 -283 -136 -398 -291 -33 -46 -58 -69 -71 -69 -29 0 -189 -55 -250 -86 -187 -95 -317 -218 -509 -484 -466 -646 -915 -1259 -942 -1285 -5 -5 6 19 25 55 73 133 217 428 252 518 90 224 119 369 119 582 -1 154 -1 155 26 190 89 114 258 460 410 841 41 104 46 111 249 356 114 137 240 291 281 341 41 51 78 92 83 92 4 0 69 -45 144 -101 146 -108 167 -119 220 -119 54 0 88 24 159 109 l65 79 158 -79 c87 -43 234 -110 327 -149 207 -88 371 -170 575 -291 307 -181 364 -213 461 -255 194 -86 359 -114 663 -114 266 0 426 16 1119 114 210 30 407 58 437 61 39 4 262 -18 775 -79 396 -47 743 -88 770 -91 44 -5 653 -78 761 -92 27 -3 51 0 72 11 67 35 62 -117 62 1954 l0 1880 -38 51 c-60 80 -693 753 -947 1007 -224 224 -288 277 -404 335 -87 43 -152 56 -403 79 -843 76 -1668 165 -1988 216 -124 19 -232 37 -240 39 -8 3 -163 32 -345 65 -181 33 -400 74 -485 90 -797 152 -1008 192 -1090 210 -115 24 -223 26 -265 4z m303 -273 c86 -17 369 -70 627 -120 1503 -287 1519 -290 2210 -365 559 -61 954 -98 1250 -116 277 -17 347 -50 592 -286 133 -130 926 -969 956 -1014 16 -23 17 -151 17 -1757 0 -953 -3 -1733 -8 -1733 -8 0 -1257 143 -1698 195 -465 54 -453 54 -779 6 -1250 -182 -1552 -185 -1879 -16 -127 65 -594 330 -611 347 -7 6 -3 13 10 20 38 22 127 113 153 157 77 132 81 331 9 454 -38 64 -118 132 -185 157 -31 12 -185 60 -341 106 -157 46 -287 86 -289 89 -5 5 48 19 173 46 144 31 425 38 565 14 109 -18 376 -92 840 -233 l285 -86 130 0 c190 1 315 38 527 155 342 189 539 392 708 729 121 241 163 409 163 660 0 187 -15 266 -78 399 -122 258 -322 394 -740 504 -414 110 -2121 527 -2155 527 -54 0 -102 -30 -125 -79 -19 -40 -50 -120 -210 -546 -167 -444 -148 -408 -399 -750 -170 -233 -201 -270 -290 -363 -148 -153 -329 -242 -494 -242 -79 0 -102 11 -102 51 0 19 84 196 239 502 164 324 249 503 270 570 29 92 100 400 291 1272 184 840 168 775 196 775 8 0 86 -13 172 -29z m1444 -1666 c496 -124 907 -229 914 -233 9 -5 -28 -50 -119 -142 -163 -166 -1023 -1045 -1281 -1309 l-188 -193 -79 9 -78 8 140 180 c337 430 345 444 321 524 -15 49 -45 75 -262 232 -421 303 -570 412 -570 419 0 6 98 258 246 632 22 54 42 98 47 98 4 0 413 -101 909 -225z m1459 -400 c60 -31 149 -113 187 -173 17 -26 43 -83 58 -127 26 -74 28 -91 28 -230 -1 -135 -4 -162 -31 -265 -108 -405 -354 -712 -733 -914 -174 -92 -337 -132 -443 -107 -48 11 -699 206 -845 253 l-63 20 43 46 c23 26 333 344 688 707 355 363 694 710 754 772 l108 112 101 -36 c56 -19 122 -45 148 -58z m-2651 -2081 c352 -105 377 -117 422 -203 65 -123 8 -284 -124 -352 -74 -38 -100 -35 -268 29 -211 82 -280 112 -382 169 -186 103 -230 149 -236 248 -7 107 47 180 153 206 51 12 109 -1 435 -97z"/>
</g>
</svg>
