<svg version="1.1" id="Layer_1" xmlns="http://www.w3.org/2000/svg" xmlns:xlink="http://www.w3.org/1999/xlink" x="0px" y="0px"
	 width="100%" viewBox="0 0 1024 1024" enable-background="new 0 0 1024 1024" xml:space="preserve">
<path fill="#000000" opacity="1.000000" stroke="none" 
	d="
M330.908081,645.828857 
	C339.802734,640.240601 349.360565,637.364319 359.109680,635.079773 
	C362.024384,634.396729 364.189911,633.045959 366.163544,630.814880 
	C371.459442,624.828369 376.632446,618.669861 382.464752,613.234802 
	C393.125549,603.300232 405.647217,597.587524 420.612732,599.513123 
	C435.587250,601.439941 446.292175,612.220886 449.317078,627.441040 
	C452.021881,641.050842 448.378906,653.842041 444.792084,666.671082 
	C443.941376,669.713684 442.875610,672.699585 441.825958,675.682373 
	C439.090515,683.455750 439.084076,685.042175 441.996979,693.916321 
	C444.058716,693.903503 445.134552,692.211487 446.474304,691.103149 
	C456.795105,682.565063 468.404846,676.590027 481.482422,673.682190 
	C486.562714,672.552551 490.589813,670.294373 494.044952,666.290588 
	C500.567627,658.732117 507.070160,651.093140 515.199890,645.115295 
	C525.143372,637.803772 536.256104,634.565430 548.558899,635.757080 
	C561.837219,637.043274 572.907898,648.532837 576.324219,664.219116 
	C579.286804,677.822327 575.431946,690.604187 571.826843,703.432678 
	C571.646729,704.073425 571.521301,704.751709 571.216614,705.331726 
	C567.226379,712.927490 567.993225,720.785767 568.796021,729.037781 
	C570.257874,744.063843 566.361938,758.444458 560.767944,772.304260 
	C557.716187,779.865356 554.217346,787.245972 550.919922,794.707886 
	C550.462830,795.742310 549.697998,796.694946 550.138062,798.328369 
	C557.194824,796.330017 564.465210,795.631531 569.324524,788.578552 
	C573.259460,782.867188 578.361084,777.916931 583.579773,773.221619 
	C592.151306,765.509521 602.115234,760.682129 613.614929,759.863708 
	C635.184387,758.328613 648.578003,773.060669 650.250854,793.572876 
	C651.399048,807.651794 647.036194,820.896973 642.794922,834.057068 
	C641.408508,838.359070 640.485474,842.425903 641.255554,847.102661 
	C643.977600,863.632141 640.398560,879.530945 635.423889,895.171387 
	C627.370850,920.490234 616.396667,944.568176 603.997864,968.014282 
	C601.120178,973.456055 596.873962,975.702271 592.386108,974.768066 
	C587.505859,973.752319 585.008179,970.510071 584.189087,965.828308 
	C583.600891,962.465942 585.345520,959.669312 586.822449,956.897156 
	C596.078979,939.523193 603.939514,921.519653 611.071655,903.191467 
	C613.034485,898.147278 614.692505,892.984436 616.309692,887.801636 
	C610.396973,898.088257 603.994080,908.002380 596.380432,917.080627 
	C589.933105,924.768433 582.299255,930.809631 572.318481,933.213318 
	C563.684753,935.292664 555.359985,933.709900 547.546936,929.989990 
	C538.455261,925.661377 530.476868,919.563782 523.319824,912.518372 
	C510.873169,900.265808 510.045380,885.588928 515.292908,870.003113 
	C520.835083,853.542236 530.525696,839.365601 540.473816,825.470703 
	C534.878052,828.041748 531.566101,831.191223 527.688416,838.529968 
	C514.923706,862.687744 501.353516,886.393188 487.700836,910.052063 
	C476.377350,929.674805 465.003418,949.269287 453.512146,968.794006 
	C449.561615,975.506348 444.052216,976.824402 438.525208,972.860779 
	C434.178711,969.743774 433.288086,963.774780 436.526978,958.020386 
	C441.919708,948.439270 447.438873,938.929382 452.899017,929.386230 
	C479.620911,882.681946 506.796539,836.228333 531.171143,788.223999 
	C534.182434,782.293396 536.858154,776.192505 539.399658,769.978577 
	C533.708069,777.933777 528.177612,785.971375 521.944885,793.509338 
	C506.315948,812.411072 485.841034,815.162354 465.824310,800.892212 
	C460.934326,797.406067 456.188995,793.757080 451.687531,789.777832 
	C438.709045,778.305237 435.930573,764.070679 440.602020,748.010437 
	C445.479645,731.241333 455.384308,717.193726 465.519043,703.261780 
	C457.869202,707.320740 450.288788,714.272949 442.445435,725.102844 
	C413.716614,764.770813 385.010132,804.455566 356.431274,844.231628 
	C326.684143,885.633728 297.097687,927.151184 267.432220,968.612000 
	C263.161163,974.581238 256.980896,976.103088 251.968826,972.477905 
	C247.124390,968.973755 246.546097,962.501282 250.795380,956.518738 
	C283.403198,910.609619 316.032288,864.715576 348.702118,818.850525 
	C360.686462,802.025757 372.799316,785.292480 384.849823,768.514832 
	C385.297211,767.891968 385.705475,767.241028 386.566895,765.952637 
	C370.161438,776.993286 354.695679,775.887329 339.403809,765.544556 
	C332.765411,761.054565 326.377991,756.265808 320.891479,750.369995 
	C312.095612,740.917725 309.825043,729.606995 312.356537,717.400757 
	C315.885162,700.386047 325.192352,686.111450 335.042694,672.182556 
	C335.906464,670.961182 336.756256,669.727112 337.544983,668.457031 
	C337.774597,668.087280 337.769745,667.571899 337.978790,666.658264 
	C329.894135,671.066406 323.717651,677.132324 318.587738,684.008606 
	C298.467133,710.978760 278.566681,738.114685 258.743622,765.305054 
	C221.448883,816.460693 184.264969,867.697144 147.033875,918.899170 
	C134.884018,935.608337 122.716553,952.304749 110.586380,969.028198 
	C106.005951,975.343018 101.393631,976.935425 96.377815,973.802734 
	C91.123466,970.521179 89.991264,963.852722 93.819977,957.468994 
	C110.699722,929.324951 127.849350,901.340454 144.495300,873.059204 
	C162.995514,841.627563 180.112411,809.432373 196.149200,776.387329 
	C182.041626,789.617126 165.773041,791.615601 148.502472,785.006775 
	C131.065811,778.334473 121.786446,764.834473 119.403000,745.889771 
	C116.214539,748.060425 114.633759,751.041992 112.707893,753.590698 
	C97.240364,774.060913 81.878853,794.611328 66.501938,815.149902 
	C62.027618,821.126160 56.435963,822.535217 51.515800,818.854309 
	C46.422771,815.044128 45.446575,808.018127 49.610626,802.426819 
	C66.724091,779.447754 83.954025,756.555481 101.126244,733.620178 
	C114.028236,716.388184 127.919136,699.982788 143.058075,684.693176 
	C151.351547,676.317261 159.156967,666.921570 170.341278,662.372864 
	C176.896179,659.706848 180.496384,655.540222 183.605209,649.556274 
	C189.071609,639.034607 197.692429,630.955994 206.993759,623.854431 
	C228.852249,607.165588 250.312363,590.013855 270.786469,571.639954 
	C274.556458,568.256653 277.342041,564.101807 280.389313,560.161560 
	C291.905823,545.270447 303.198700,530.205261 314.813965,515.392395 
	C317.540344,511.915558 317.350098,510.032776 313.713257,507.514496 
	C306.045563,502.205139 298.644470,496.508453 291.173950,490.917297 
	C282.268799,484.252411 280.808929,476.726929 287.357605,467.640656 
	C298.948364,451.558411 310.897217,435.734161 322.696899,419.802490 
	C326.451752,414.732758 330.208801,409.664673 334.351440,404.074127 
	C325.696594,406.327393 317.590881,406.938538 309.256226,405.444336 
	C289.573914,401.915771 279.933197,385.740326 286.919556,366.785645 
	C291.939789,353.165253 299.383453,340.646790 305.795746,327.663452 
	C313.687927,311.683716 322.021240,295.920776 329.836090,279.904175 
	C337.591827,264.008667 339.697449,246.473099 343.430023,229.469177 
	C354.616608,178.508179 364.977997,127.367317 376.863647,76.557266 
	C379.587097,64.914818 387.259613,53.880131 404.416687,57.891830 
	C408.298248,58.799423 412.221161,59.538315 416.138824,60.282192 
	C471.006561,70.700325 525.842957,81.288307 580.760071,91.439476 
	C609.355774,96.725258 638.152466,100.895813 667.015808,104.446098 
	C687.141296,106.921593 707.351135,108.724922 727.534973,110.708778 
	C748.054016,112.725563 768.584839,114.624092 789.115784,116.517281 
	C798.722717,117.403152 808.336853,118.223457 817.956848,118.952095 
	C836.193542,120.333366 850.631287,129.681229 863.923218,141.129593 
	C883.400635,157.905624 900.602417,177.005371 918.425659,195.457886 
	C936.716064,214.394043 954.757629,233.570419 973.022644,252.531342 
	C976.114929,255.741440 977.439575,259.091217 977.435303,263.616333 
	C977.326904,378.278809 977.351868,492.941467 977.347351,607.604065 
	C977.346924,618.095032 972.927490,621.819092 962.319031,620.541199 
	C927.985474,616.405396 893.618347,612.536011 859.316040,608.157593 
	C828.475586,604.221130 797.626770,600.226807 766.934448,595.305237 
	C752.198120,592.942261 738.155029,595.478394 723.919128,597.693787 
	C694.670959,602.245544 665.414490,606.645081 635.930481,609.500916 
	C620.489807,610.996521 605.071045,611.453064 589.576233,611.511536 
	C564.881531,611.604614 542.247009,604.969910 521.362793,592.063354 
	C492.834839,574.433105 463.403778,558.571716 432.441986,545.581970 
	C421.078613,540.814575 409.960785,535.433899 399.467438,528.921326 
	C396.393677,527.013672 394.429657,527.281433 392.455841,530.285278 
	C390.354553,533.482910 388.011139,536.527161 385.682648,539.568787 
	C379.798859,547.254700 370.168884,548.852844 362.247955,543.271667 
	C355.439850,538.474609 348.721069,533.537720 342.155273,528.415955 
	C339.356323,526.232544 337.600555,526.723633 335.584656,529.298767 
	C321.207794,547.663818 306.258759,565.609070 292.548309,584.456543 
	C284.714539,595.225403 281.055695,608.416321 276.145447,620.789490 
	C267.909058,641.544067 259.516144,662.222961 248.402954,681.660400 
	C246.586258,684.837891 244.981354,688.315979 242.486938,690.887024 
	C238.022720,695.488586 237.359604,700.744568 237.202591,706.813538 
	C236.587585,730.585876 229.934845,753.021545 221.014114,774.865845 
	C219.018707,779.752075 216.848343,784.566833 215.293259,789.743774 
	C224.470825,776.947083 233.588745,764.107178 242.838776,751.363037 
	C260.649109,726.824951 278.399353,702.241333 296.443573,677.875793 
	C305.827393,665.204590 316.920868,654.180054 330.908081,645.828857 
M338.531830,379.052002 
	C350.465240,372.857574 361.414459,365.387787 369.935760,354.780670 
	C378.909393,343.610565 388.021454,332.547638 396.802704,321.228149 
	C405.898834,309.502838 414.544403,297.463470 419.884674,283.405579 
	C429.758453,257.413666 439.668640,231.435394 449.656403,205.487137 
	C454.029266,194.126373 458.361633,192.149979 470.039429,195.158707 
	C526.587830,209.728195 583.183228,224.116226 639.703552,238.793549 
	C658.682251,243.721954 678.138367,247.030960 696.328003,254.761139 
	C717.055115,263.569672 733.514587,276.921021 741.737854,298.597260 
	C748.154114,315.510315 749.387207,333.144440 745.896973,350.706940 
	C734.827637,406.405945 701.817017,444.713867 650.669556,467.850403 
	C630.560242,476.946838 609.851379,478.616730 588.504028,470.978027 
	C573.169739,465.490967 557.441833,461.045074 541.751221,456.625854 
	C515.939087,449.356018 489.987152,442.547913 462.765289,444.350037 
	C451.325897,445.107330 440.115509,447.146881 428.291351,452.170349 
	C430.943024,452.985229 432.442413,453.487823 433.964661,453.907410 
	C451.614075,458.772552 469.403137,463.260101 486.192505,470.727081 
	C501.387817,477.485077 510.697540,494.497925 507.938873,509.795319 
	C505.675415,522.346863 499.927032,532.979919 490.357452,541.511597 
	C489.060120,542.668213 487.148987,543.386292 486.858948,545.427673 
	C487.569611,546.801331 488.929779,547.161743 490.066193,547.810547 
	C504.822235,556.235168 519.734009,564.399658 534.305115,573.132629 
	C551.642700,583.523560 570.450012,588.138794 590.424133,588.659180 
	C612.098022,589.223877 633.618713,587.216431 655.137512,584.844177 
	C680.756714,582.019958 706.189819,577.999817 731.627625,573.941833 
	C739.323853,572.714111 747.009827,570.342651 754.823181,571.076721 
	C764.240051,571.961426 773.549072,573.941833 782.931580,575.256836 
	C803.509399,578.140869 824.092651,580.992615 844.695251,583.692566 
	C865.133484,586.370972 885.593018,588.889099 906.053040,591.397522 
	C920.739929,593.198120 935.446167,594.840637 950.136475,596.614563 
	C953.538940,597.025391 955.187134,595.835876 954.982544,592.272461 
	C954.820312,589.446716 954.787964,586.610352 954.790466,583.778809 
	C954.881042,479.619965 954.969421,375.461121 955.137146,271.302399 
	C955.142944,267.708099 954.148865,264.991638 951.572693,262.438843 
	C945.538086,256.458740 939.791443,250.189346 933.869934,244.093719 
	C908.558411,218.037949 884.040344,191.210175 857.963867,165.899490 
	C843.309937,151.675781 827.424377,141.370361 805.484985,140.651016 
	C778.607300,139.769745 751.845947,135.710007 724.998108,133.455185 
	C694.329224,130.879456 663.775391,127.307701 633.312134,123.063263 
	C586.869385,116.592384 540.839966,107.654724 494.806030,98.798546 
	C464.767212,93.019562 434.735138,87.199661 404.757904,81.113022 
	C400.404358,80.229073 399.248138,81.734200 398.390411,85.402824 
	C386.236328,137.386856 375.038971,189.578278 364.207764,241.851395 
	C360.426086,260.102539 356.723511,278.393524 348.025299,295.179291 
	C337.679932,315.143799 327.377289,335.131226 317.202698,355.183105 
	C314.045227,361.405792 310.293457,367.382690 308.295044,374.140167 
	C306.491577,380.238556 308.634735,383.200165 315.071075,383.720642 
	C323.055878,384.366302 330.643677,382.822449 338.531830,379.052002 
M612.570007,333.065704 
	C582.404602,364.207703 552.239136,395.349731 522.256958,426.302521 
	C523.643005,428.373810 524.815552,428.582245 525.931213,428.909149 
	C549.545898,435.828491 573.123352,442.878632 596.794250,449.599884 
	C604.580994,451.810944 612.421997,454.617126 620.751221,453.434937 
	C630.041321,452.116425 638.971863,449.329803 647.293152,445.049347 
	C690.249146,422.952820 716.939880,388.541321 724.272095,340.453339 
	C726.606689,325.141937 724.401794,309.821167 715.201904,296.453308 
	C706.661621,284.043793 693.454834,278.268555 680.466064,272.161682 
	C676.501343,270.297638 673.706299,270.720978 670.455688,274.081818 
	C651.468445,293.713257 632.220215,313.092285 612.570007,333.065704 
M621.499268,291.999359 
	C630.171570,283.136108 638.843811,274.272827 648.406555,264.499481 
	C587.783020,248.959305 528.462341,233.753082 469.003784,218.511536 
	C468.337128,219.990799 467.813599,221.022888 467.396881,222.096481 
	C459.508087,242.421249 451.816162,262.825653 443.622375,283.026550 
	C441.596558,288.020966 442.507904,290.459198 446.808411,293.513641 
	C470.163635,310.101715 493.235443,327.088196 516.489319,343.820038 
	C521.218079,347.222473 523.661377,351.352295 523.413330,357.296753 
	C523.231323,361.657867 520.831543,364.777130 518.517883,367.990997 
	C507.617950,383.131775 496.104919,397.805176 484.515930,412.420776 
	C482.606934,414.828308 480.350342,417.056000 479.131378,420.100647 
	C495.082581,423.471680 494.928650,423.323761 505.529449,412.291931 
	C543.957458,372.301514 582.497925,332.419281 621.499268,291.999359 
M476.476379,721.935730 
	C469.096619,732.660706 462.335510,743.696960 458.337463,756.228821 
	C456.170776,763.020264 457.806122,768.629700 462.821716,773.498352 
	C468.838562,779.338928 475.701996,784.062805 482.802856,788.410034 
	C489.589478,792.564819 496.610291,791.665222 502.519989,786.236084 
	C504.475891,784.439087 506.416595,782.560242 508.022827,780.457947 
	C526.679688,756.039551 540.623840,729.088745 550.405701,700.022888 
	C553.744751,690.101318 556.174133,679.842102 555.664551,669.198425 
	C555.249939,660.539062 549.987854,655.753174 541.396912,656.285278 
	C534.388489,656.719299 528.611328,660.088684 523.939270,665.049866 
	C507.147888,682.880188 490.914185,701.193115 476.476379,721.935730 
M625.081238,784.390503 
	C622.643372,781.698120 619.474854,781.063538 616.020325,781.024841 
	C608.510010,780.940796 602.459412,784.247253 597.394348,789.365723 
	C580.860657,806.073975 565.811523,824.064392 552.138428,843.171692 
	C543.886414,854.703430 536.945312,866.959106 532.531067,880.585022 
	C530.021851,888.330505 532.243774,894.464661 537.987488,899.381836 
	C542.649780,903.373108 547.762756,906.888000 552.916748,910.244446 
	C564.002380,917.463745 571.018250,916.467590 580.062500,906.559143 
	C587.973511,897.892273 593.887756,887.820801 599.698364,877.723755 
	C613.044067,854.533203 623.927673,830.349976 628.176880,803.670715 
	C629.196228,797.270508 629.981934,790.698608 625.081238,784.390503 
M412.911346,689.508850 
	C416.472809,681.987976 419.619019,674.285156 422.206329,666.388000 
	C425.367157,656.740479 428.101990,646.894226 428.556610,636.725769 
	C429.170929,622.985107 419.873260,616.793274 407.288391,622.089050 
	C400.635010,624.888794 395.772522,629.963501 391.183014,635.246765 
	C379.396240,648.815125 367.341949,662.167908 356.414490,676.454895 
	C346.689423,689.169739 337.642365,702.342773 332.354736,717.638123 
	C329.650970,725.459229 330.490906,732.654785 337.058380,738.597290 
	C341.152893,742.302063 345.600739,745.492065 350.100159,748.648987 
	C362.969971,757.678528 371.096832,756.567261 380.988983,744.349365 
	C381.931549,743.185181 382.838989,741.990479 383.720978,740.779541 
	C395.221344,724.989563 404.885895,708.147095 412.911346,689.508850 
M206.123383,697.485535 
	C198.054642,693.329834 190.916138,687.856689 184.599716,681.422485 
	C181.521484,678.286865 179.245285,678.546875 176.175827,681.195618 
	C166.672699,689.396179 158.274200,698.622009 150.774063,708.630310 
	C142.411667,719.789246 138.221725,732.357788 139.282608,746.451782 
	C139.768799,752.911194 142.241302,758.315186 147.538727,762.275330 
	C159.477173,771.199951 176.072601,773.378662 189.047714,757.322449 
	C201.367294,742.077454 209.938522,725.008850 214.217484,705.810852 
	C214.953583,702.508362 213.811264,700.733765 210.892365,699.620728 
	C209.496796,699.088501 208.143478,698.445557 206.123383,697.485535 
M389.917358,492.487793 
	C392.627014,497.859436 396.864746,501.913025 401.772491,505.105438 
	C420.050232,516.994751 440.385742,524.576477 460.543335,532.437744 
	C465.109650,534.218567 470.066895,533.264038 474.464935,530.540710 
	C480.530212,526.785034 484.476196,521.369080 487.035919,514.855225 
	C492.296326,501.468872 487.665588,491.176178 474.170837,486.244843 
	C460.087982,481.098663 445.803741,476.541290 431.293976,472.801178 
	C422.812500,470.614960 414.465118,467.327362 405.379364,468.282227 
	C393.569031,469.523376 383.455566,478.946991 389.917358,492.487793 
M200.495697,657.034607 
	C195.813782,664.266113 195.927338,666.056824 202.324142,671.833008 
	C205.766953,674.941833 209.393906,677.926147 213.268051,680.462097 
	C222.546860,686.536011 224.830490,685.875732 230.521851,676.417114 
	C238.503677,663.151917 244.062836,648.735046 250.440750,634.705750 
	C252.663254,629.817200 250.466949,625.549927 248.327393,621.539368 
	C247.315872,619.643188 245.183746,617.577271 242.206818,619.874084 
	C227.613892,631.132996 212.457001,641.742676 200.495697,657.034607 
z"/>
</svg>