<svg id="svg" version="1.1" width="400" height="400" viewBox="0 0 400 400" xmlns="http://www.w3.org/2000/svg" xmlns:xlink="http://www.w3.org/1999/xlink"><g id="svgg"><path id="path0" d="M150.781 15.104 C 149.752 15.316,147.787 16.669,146.439 18.095 C 144.676 19.960,143.504 23.572,141.220 34.180 C 139.856 40.517,139.305 43.030,137.926 49.219 C 137.280 52.119,136.375 56.250,135.915 58.398 C 125.879 105.311,127.088 101.258,117.303 120.842 C 106.088 143.288,105.336 145.290,106.276 150.182 C 107.440 156.241,115.016 159.842,123.349 158.298 C 126.330 157.745,126.366 157.670,119.083 167.206 C 101.361 190.411,101.763 188.374,113.184 197.133 C 118.400 201.134,118.214 200.149,114.527 204.236 C 112.849 206.096,108.597 211.045,105.079 215.234 C 94.246 228.136,92.273 230.313,88.754 233.252 C 86.883 234.815,83.847 237.353,82.009 238.891 L 78.666 241.687 76.744 240.932 C 67.395 237.260,52.950 237.509,43.038 241.513 C 28.393 247.428,17.188 265.158,11.949 290.708 C 8.061 309.672,8.568 322.693,14.032 344.141 C 17.341 357.129,18.875 366.762,19.746 380.025 C 20.076 385.040,21.022 386.543,23.803 386.470 C 27.408 386.375,27.871 384.950,27.158 376.156 C 26.109 363.232,24.433 353.081,21.656 342.829 C 14.525 316.503,16.135 293.347,26.726 269.893 C 35.300 250.905,51.429 242.256,69.629 246.886 C 71.964 247.480,72.008 247.306,68.662 250.674 L 65.840 253.516 61.143 253.523 C 38.358 253.561,32.242 260.913,34.398 285.675 C 35.795 301.712,43.859 307.526,63.281 306.499 C 80.874 305.568,86.326 298.808,86.328 277.924 L 86.328 273.622 87.781 271.479 C 88.581 270.300,89.793 268.298,90.475 267.030 L 91.715 264.725 92.298 265.859 C 97.571 276.125,98.825 294.927,95.539 314.453 C 92.237 334.070,92.694 351.642,96.770 361.831 C 97.893 364.638,101.298 365.222,103.220 362.938 C 105.291 360.477,113.895 315.329,116.792 291.726 C 118.980 273.892,120.400 269.447,125.577 264.231 C 135.234 254.500,156.613 257.732,162.316 269.785 C 167.192 280.093,165.335 289.397,147.031 346.398 C 142.870 359.356,142.830 359.876,145.888 361.153 C 149.362 362.605,150.370 361.296,153.626 351.100 C 159.154 333.795,164.098 317.890,166.354 310.156 C 170.143 297.166,176.817 283.599,181.551 279.265 C 192.757 269.005,212.246 277.199,212.825 292.414 C 213.163 301.322,209.385 309.673,187.281 348.880 C 179.887 361.997,179.620 362.716,181.460 364.556 C 183.886 366.983,186.445 366.058,188.773 361.914 C 189.618 360.410,193.080 354.258,196.466 348.242 C 199.851 342.227,203.989 334.756,205.660 331.641 C 210.704 322.241,210.908 321.897,214.467 316.819 C 221.499 306.787,225.873 303.930,233.526 304.373 C 244.817 305.027,250.874 316.042,247.875 330.469 C 246.230 338.386,239.794 354.272,229.929 374.767 C 225.769 383.409,225.664 385.286,229.277 386.368 C 232.737 387.405,235.469 382.725,246.750 356.445 C 253.416 340.916,259.143 335.087,267.188 335.646 C 279.562 336.505,285.252 354.944,280.055 377.344 C 278.661 383.353,278.659 383.695,280.002 385.198 C 284.738 390.499,288.588 382.149,289.656 364.258 C 291.151 339.210,275.383 321.682,258.474 329.595 L 255.951 330.775 256.155 325.026 C 256.618 311.965,252.140 303.467,242.359 298.846 C 235.899 295.794,227.855 295.777,221.922 298.804 C 221.054 299.247,220.277 299.609,220.195 299.609 C 220.113 299.609,220.183 298.774,220.351 297.754 C 224.429 272.982,193.371 256.795,175.558 274.408 C 172.025 277.902,172.150 277.901,171.678 274.441 C 168.194 248.894,128.749 241.771,115.683 264.330 C 112.227 270.298,111.449 273.735,108.582 295.703 C 107.117 306.931,101.582 338.392,100.963 339.011 C 100.585 339.389,100.812 333.187,101.368 327.930 C 101.891 322.986,102.263 320.539,104.113 309.856 C 106.919 293.651,104.461 272.955,98.240 260.404 L 96.116 256.119 98.064 251.718 C 99.136 249.298,100.968 245.006,102.137 242.181 C 104.817 235.699,105.414 234.697,109.848 229.224 C 118.230 218.880,127.125 208.203,127.361 208.203 C 127.500 208.203,128.828 209.084,130.311 210.160 C 141.855 218.537,142.651 218.620,148.237 212.026 L 150.458 209.403 155.795 212.075 C 158.731 213.545,162.803 215.458,164.844 216.327 C 176.833 221.431,186.623 226.439,197.609 233.089 C 216.563 244.563,229.358 246.390,261.133 242.157 C 264.355 241.728,268.926 241.126,271.289 240.819 C 273.652 240.512,277.959 239.913,280.859 239.488 C 293.066 237.698,297.559 237.172,299.219 237.339 C 313.953 238.820,344.106 242.323,379.807 246.702 C 389.038 247.835,390.329 247.655,391.175 245.117 C 391.429 244.358,391.612 218.142,391.698 170.661 L 391.829 97.377 390.246 95.374 C 384.331 87.891,349.467 51.654,343.759 47.056 C 336.442 41.163,338.471 41.574,296.484 37.490 C 285.420 36.414,275.049 35.365,273.438 35.158 C 271.826 34.951,267.168 34.415,263.086 33.968 C 253.135 32.876,238.915 30.777,230.078 29.095 C 226.104 28.338,221.445 27.464,219.727 27.152 C 211.621 25.683,172.807 18.313,163.086 16.397 C 157.128 15.224,152.544 14.742,150.781 15.104 M170.981 27.915 C 179.529 29.518,187.754 31.090,189.258 31.408 C 192.498 32.093,193.612 32.305,213.867 36.094 C 235.558 40.152,241.694 41.218,249.890 42.352 C 265.730 44.545,300.241 48.098,316.602 49.221 C 331.145 50.219,333.426 51.029,341.108 57.916 C 346.366 62.631,380.567 98.751,381.579 100.658 C 381.917 101.295,382.031 118.621,382.031 169.115 L 382.031 236.719 380.762 236.707 C 380.063 236.700,378.174 236.523,376.563 236.314 C 374.951 236.104,367.480 235.235,359.961 234.383 C 352.441 233.531,343.301 232.486,339.648 232.061 C 335.996 231.637,328.438 230.763,322.852 230.119 C 317.266 229.475,311.025 228.730,308.984 228.462 C 301.886 227.533,292.593 227.797,283.398 229.188 C 241.650 235.505,226.047 235.906,214.582 230.954 C 211.164 229.477,200.928 223.896,192.095 218.693 L 187.510 215.992 190.548 212.976 C 196.450 207.119,198.033 199.496,194.810 192.456 C 192.597 187.621,189.955 186.006,178.711 182.614 C 159.681 176.874,160.898 177.555,167.224 176.190 C 172.002 175.159,177.257 174.625,182.687 174.616 C 191.186 174.603,193.788 175.194,220.897 183.289 L 235.348 187.605 241.404 187.385 C 247.898 187.150,250.086 186.686,255.295 184.439 C 279.485 174.001,294.676 152.074,294.713 127.539 L 294.727 118.945 293.494 115.500 C 289.752 105.039,282.508 98.455,270.213 94.341 C 265.027 92.606,238.985 85.920,214.689 80.087 C 211.919 79.421,205.063 77.763,199.455 76.401 C 193.847 75.040,186.859 73.360,183.927 72.669 L 178.596 71.412 176.823 72.197 C 174.464 73.240,174.004 74.206,167.398 91.992 C 159.699 112.720,160.033 112.074,149.841 125.904 C 136.954 143.391,129.724 148.828,119.357 148.828 C 114.116 148.828,114.014 149.252,124.260 128.560 C 137.196 102.435,134.785 110.128,145.878 59.570 C 153.779 23.565,153.414 25.000,154.664 25.000 C 155.089 25.000,162.432 26.312,170.981 27.915 M211.714 89.687 C 239.208 96.549,251.896 99.775,253.044 100.194 C 254.007 100.546,252.686 102.068,242.019 112.891 C 236.196 118.799,224.143 131.104,215.234 140.234 C 206.325 149.365,197.276 158.607,195.124 160.771 L 191.211 164.705 188.194 164.286 L 185.178 163.867 192.025 155.078 C 206.810 136.098,206.784 137.366,192.593 127.148 C 182.422 119.825,171.676 111.961,170.956 111.313 C 170.600 110.993,171.451 108.622,176.723 95.248 C 180.724 85.098,181.887 82.422,182.298 82.422 C 182.469 82.422,195.706 85.691,211.714 89.687 M268.896 104.484 C 280.624 108.729,285.524 115.415,285.541 127.195 C 285.571 147.828,270.342 168.570,249.450 176.352 C 242.865 178.804,240.683 178.740,230.859 175.807 C 213.773 170.704,203.384 167.492,203.034 167.203 C 202.877 167.073,207.606 161.963,213.544 155.847 C 228.093 140.860,264.968 103.125,265.064 103.125 C 265.107 103.125,266.831 103.737,268.896 104.484 M161.392 185.347 C 171.150 187.883,182.898 191.698,185.062 193.033 C 191.325 196.897,188.797 208.234,181.142 210.609 C 175.825 212.260,151.284 200.509,148.787 195.117 C 145.325 187.639,151.574 182.795,161.392 185.347 M133.177 263.994 C 127.044 266.027,123.557 275.715,125.999 283.937 C 128.216 291.405,145.495 295.601,153.001 290.494 C 158.876 286.496,160.588 272.345,155.715 268.065 C 151.222 264.121,139.295 261.966,133.177 263.994 M188.799 279.314 C 181.175 280.821,176.049 296.538,181.254 302.451 C 185.376 307.133,196.556 310.167,201.116 307.841 C 206.158 305.269,210.597 294.246,208.898 288.522 C 207.328 283.237,195.762 277.938,188.799 279.314 M226.367 308.760 C 221.536 310.533,216.850 322.624,219.088 327.539 C 221.530 332.901,232.803 337.220,238.089 334.818 C 243.850 332.201,247.984 319.858,244.685 315.123 C 241.411 310.424,231.351 306.930,226.367 308.760 M261.294 340.192 C 256.261 341.843,251.528 353.674,253.854 358.792 C 256.154 363.857,267.033 367.968,272.074 365.678 C 277.594 363.170,281.556 351.537,278.521 346.751 C 275.766 342.406,265.944 338.667,261.294 340.192 " stroke="none" fill="#050505" fill-rule="evenodd"></path><path id="path1" d="M0.000 200.000 L 0.000 400.000 200.000 400.000 L 400.000 400.000 400.000 200.000 L 400.000 0.000 200.000 0.000 L 0.000 0.000 0.000 200.000 M161.004 15.792 C 163.653 16.313,170.039 17.548,175.195 18.535 C 180.352 19.522,185.801 20.573,187.305 20.869 C 188.809 21.165,191.621 21.702,193.555 22.061 C 195.488 22.421,197.949 22.888,199.023 23.099 C 204.645 24.205,233.389 29.480,238.281 30.304 C 253.189 32.814,272.611 35.077,308.398 38.475 C 336.409 41.134,337.095 41.299,344.141 47.076 C 350.483 52.276,388.965 92.570,391.394 96.555 C 392.870 98.976,392.399 243.934,390.908 246.210 C 389.791 247.915,388.164 247.889,371.835 245.909 C 354.996 243.867,351.714 243.478,337.305 241.816 C 331.719 241.171,324.863 240.366,322.070 240.026 C 305.745 238.042,298.110 237.376,295.313 237.692 C 292.834 237.972,277.980 240.033,274.219 240.619 C 249.150 244.521,228.891 245.278,218.359 242.705 C 211.411 241.007,207.740 239.255,193.164 230.678 C 185.007 225.878,178.297 222.436,170.313 218.954 C 166.553 217.315,160.537 214.547,156.944 212.804 L 150.411 209.634 149.537 210.774 C 143.517 218.619,141.654 218.725,132.267 211.754 C 127.026 207.863,127.738 207.778,123.598 212.793 C 121.691 215.103,117.649 219.980,114.615 223.633 C 106.235 233.722,105.412 234.936,102.898 240.927 C 101.661 243.876,99.639 248.554,98.407 251.322 L 96.166 256.355 97.283 258.171 C 104.514 269.922,107.410 293.689,103.880 312.305 C 102.401 320.105,101.531 326.863,101.366 331.836 L 101.198 336.914 102.532 330.469 C 104.614 320.405,107.678 301.653,109.201 289.648 C 112.505 263.607,118.164 254.692,133.398 251.523 C 152.468 247.556,169.381 257.774,171.935 274.805 L 172.345 277.539 175.723 274.181 C 193.583 256.430,225.153 273.345,220.496 298.170 L 220.245 299.503 222.525 298.429 C 240.416 290.002,259.789 306.798,256.299 327.711 C 255.778 330.829,255.611 330.730,258.828 329.206 C 262.361 327.533,269.290 327.330,273.158 328.787 C 287.164 334.062,293.006 353.196,288.072 377.632 C 286.537 385.237,285.613 386.719,282.411 386.719 C 278.794 386.719,278.346 384.370,280.288 375.586 C 284.108 358.296,280.305 341.327,271.656 337.068 C 262.655 332.638,254.230 338.932,247.548 355.078 C 245.508 360.009,238.127 376.102,235.538 381.268 C 232.694 386.941,230.639 388.126,227.793 385.732 C 225.630 383.911,225.746 383.142,229.318 375.670 C 250.593 331.170,253.381 316.079,241.892 307.625 C 230.077 298.930,219.553 305.788,206.240 330.859 C 202.892 337.163,192.143 356.467,188.885 362.026 C 186.443 366.193,184.062 367.121,181.558 364.884 C 179.483 363.030,179.740 361.735,183.461 355.273 C 208.149 312.413,214.505 298.001,212.506 289.415 C 209.372 275.952,191.036 270.203,181.390 279.659 C 176.729 284.228,170.415 297.112,166.732 309.570 C 158.186 338.480,151.325 359.384,149.971 360.645 C 148.288 362.210,146.417 362.120,144.688 360.391 C 143.059 358.762,143.010 357.794,144.357 353.877 C 150.275 336.669,161.032 301.113,163.070 292.027 C 167.780 271.025,159.675 258.971,140.855 258.989 C 133.389 258.996,129.487 260.413,125.502 264.564 C 120.497 269.775,119.134 274.130,116.976 291.797 C 114.857 309.141,110.304 334.709,105.442 356.566 C 103.892 363.532,103.302 364.453,100.391 364.453 C 97.517 364.453,96.602 363.079,95.191 356.641 C 92.143 342.740,92.347 330.385,95.942 311.081 C 98.408 297.842,97.466 281.919,93.490 269.629 C 91.903 264.721,91.832 264.642,90.855 266.699 C 90.472 267.505,89.410 269.307,88.496 270.703 L 86.833 273.242 86.396 281.250 C 85.339 300.622,80.185 306.032,62.305 306.537 C 48.314 306.932,40.274 303.918,36.761 296.960 C 33.349 290.199,32.846 269.739,35.938 263.429 C 39.229 256.711,52.008 251.991,63.203 253.358 L 65.273 253.610 68.163 250.808 C 69.753 249.266,71.073 247.886,71.097 247.740 C 71.284 246.596,60.225 245.713,55.046 246.458 C 39.599 248.680,30.056 258.614,23.123 279.688 C 15.996 301.354,15.579 319.381,21.680 342.188 C 24.987 354.554,26.722 365.434,27.569 379.121 C 27.947 385.239,26.511 387.439,22.759 386.487 C 20.375 385.882,19.831 384.679,19.472 379.211 C 18.633 366.430,17.205 357.537,13.862 344.266 C 7.961 320.845,7.806 305.315,13.261 284.316 C 19.868 258.889,31.669 243.843,48.319 239.619 C 57.371 237.323,69.256 237.769,76.701 240.685 L 78.598 241.427 81.194 239.304 C 91.449 230.913,93.157 229.224,101.563 219.158 C 103.604 216.714,107.954 211.574,111.230 207.735 C 114.507 203.897,117.188 200.693,117.188 200.615 C 117.188 200.538,115.386 199.098,113.184 197.415 C 101.675 188.623,101.459 190.057,117.452 169.080 C 121.818 163.353,125.391 158.607,125.391 158.533 C 125.391 158.459,122.886 158.398,119.824 158.398 C 112.199 158.398,108.922 156.860,106.680 152.230 C 104.387 147.494,105.367 144.418,115.883 123.344 C 127.088 100.888,125.484 105.834,133.205 69.922 C 133.598 68.096,134.732 62.910,135.725 58.398 C 136.718 53.887,138.580 45.367,139.861 39.466 C 145.372 14.096,146.420 12.922,161.004 15.792 M153.587 26.258 C 153.106 27.847,152.973 28.408,151.748 33.984 C 151.206 36.455,150.593 39.180,150.386 40.039 C 149.840 42.305,147.987 50.709,145.518 62.109 C 138.603 94.048,136.069 104.409,134.107 108.758 C 133.323 110.494,129.301 118.733,125.168 127.067 C 113.815 149.957,114.134 148.669,119.841 148.592 C 130.106 148.454,136.969 143.166,150.123 125.260 C 159.642 112.303,159.451 112.676,167.585 91.016 C 175.159 70.844,175.229 70.744,180.976 71.861 C 189.562 73.531,263.399 91.862,269.141 93.749 C 287.882 99.910,296.049 111.182,295.181 129.688 C 294.041 153.972,276.801 176.624,252.498 185.772 C 243.789 189.050,238.556 188.736,222.648 183.983 C 215.455 181.834,208.691 179.815,207.617 179.496 C 191.527 174.728,180.206 173.601,170.117 175.762 C 169.258 175.946,167.500 176.306,166.211 176.562 C 161.908 177.415,161.740 177.307,172.266 180.462 C 188.715 185.393,189.038 185.522,192.019 188.341 C 198.643 194.606,198.085 205.821,190.796 212.888 L 187.826 215.768 188.737 216.456 C 189.586 217.097,201.507 223.965,206.824 226.876 C 223.914 236.234,232.646 236.442,285.742 228.759 C 295.747 227.311,297.554 227.232,305.056 227.916 C 308.801 228.258,312.228 228.621,312.671 228.723 C 313.114 228.825,317.432 229.346,322.266 229.882 C 327.100 230.418,333.164 231.109,335.742 231.419 C 340.096 231.942,346.379 232.659,371.680 235.521 C 377.051 236.129,381.533 236.544,381.641 236.445 C 381.748 236.345,381.836 205.804,381.836 168.576 L 381.836 100.889 378.320 97.031 C 361.750 78.847,339.342 56.033,335.782 53.721 C 331.389 50.869,329.459 50.452,315.696 49.388 C 303.708 48.460,288.980 47.088,278.125 45.888 C 275.225 45.567,270.391 45.036,267.383 44.707 C 252.520 43.084,241.868 41.518,227.734 38.879 C 226.123 38.578,222.871 37.971,220.508 37.529 C 216.023 36.692,181.351 30.124,165.820 27.171 C 152.569 24.651,154.040 24.761,153.587 26.258 M181.457 84.082 C 181.163 84.780,180.561 86.192,180.119 87.218 C 179.315 89.085,173.188 104.716,171.819 108.393 C 171.420 109.464,171.094 110.546,171.094 110.797 C 171.094 111.261,174.676 113.951,190.820 125.615 C 207.347 137.555,207.234 135.800,192.678 154.492 C 188.603 159.725,185.858 163.578,186.103 163.719 C 186.334 163.853,187.581 164.077,188.873 164.217 L 191.222 164.471 198.065 157.528 C 201.829 153.710,212.548 142.764,221.887 133.203 C 231.225 123.643,242.088 112.523,246.026 108.492 C 249.965 104.462,253.115 100.947,253.027 100.681 C 252.868 100.205,184.702 82.851,182.890 82.825 C 182.240 82.816,181.843 83.164,181.457 84.082 M264.180 104.062 C 263.906 104.541,253.802 114.929,224.439 144.922 C 220.127 149.326,213.528 156.083,209.773 159.936 L 202.948 166.942 204.152 167.434 C 204.814 167.704,211.050 169.625,218.010 171.704 C 224.970 173.782,232.334 175.997,234.375 176.625 C 243.143 179.326,251.585 176.996,263.165 168.680 C 286.682 151.793,293.131 115.806,274.256 106.791 C 269.527 104.533,264.663 103.216,264.180 104.062 M152.990 184.923 C 146.896 187.185,146.653 194.499,152.524 198.947 C 158.187 203.237,175.252 210.547,179.604 210.547 C 185.706 210.547,190.478 201.931,187.552 196.195 C 185.984 193.123,184.124 192.176,173.242 188.913 C 158.709 184.556,155.619 183.947,152.990 184.923 M147.600 264.095 C 156.883 266.459,159.712 270.254,158.496 278.711 C 156.717 291.083,150.720 294.847,137.305 292.013 C 127.175 289.873,124.261 285.752,125.609 275.470 C 127.094 264.146,133.925 260.612,147.600 264.095 M195.733 279.464 C 206.800 281.810,211.344 287.897,208.585 296.680 C 205.090 307.805,199.879 311.008,190.430 307.840 C 180.039 304.357,177.275 299.871,179.907 290.766 C 182.958 280.215,186.692 277.548,195.733 279.464 M234.572 308.733 C 244.270 311.316,247.932 316.651,245.336 324.414 C 241.927 334.611,237.366 337.493,228.996 334.741 C 219.028 331.464,216.597 327.118,219.672 318.075 C 222.796 308.888,226.480 306.578,234.572 308.733 M269.167 340.473 C 278.808 343.334,281.666 348.408,278.523 357.086 C 275.254 366.114,270.551 368.432,262.001 365.233 C 253.627 362.100,251.430 357.578,254.313 349.414 C 257.471 340.474,261.334 338.149,269.167 340.473 " stroke="none" fill="#fbfbfb" fill-rule="evenodd"></path><path id="path2" d="M290.723 36.988 C 291.099 37.086,291.714 37.086,292.090 36.988 C 292.466 36.890,292.158 36.809,291.406 36.809 C 290.654 36.809,290.347 36.890,290.723 36.988 M302.441 38.160 C 302.817 38.258,303.433 38.258,303.809 38.160 C 304.185 38.062,303.877 37.981,303.125 37.981 C 302.373 37.981,302.065 38.062,302.441 38.160 M306.738 38.551 C 307.114 38.649,307.729 38.649,308.105 38.551 C 308.481 38.452,308.174 38.372,307.422 38.372 C 306.670 38.372,306.362 38.452,306.738 38.551 M314.751 39.339 C 315.237 39.432,315.940 39.429,316.313 39.331 C 316.687 39.233,316.289 39.157,315.430 39.161 C 314.570 39.165,314.265 39.245,314.751 39.339 M327.051 40.504 C 327.427 40.602,328.042 40.602,328.418 40.504 C 328.794 40.405,328.486 40.325,327.734 40.325 C 326.982 40.325,326.675 40.405,327.051 40.504 M260.645 44.019 C 261.021 44.118,261.636 44.118,262.012 44.019 C 262.388 43.921,262.080 43.841,261.328 43.841 C 260.576 43.841,260.269 43.921,260.645 44.019 M271.191 45.191 C 271.567 45.289,272.183 45.289,272.559 45.191 C 272.935 45.093,272.627 45.013,271.875 45.013 C 271.123 45.013,270.815 45.093,271.191 45.191 M282.129 46.363 C 282.505 46.461,283.120 46.461,283.496 46.363 C 283.872 46.265,283.564 46.184,282.813 46.184 C 282.061 46.184,281.753 46.265,282.129 46.363 M293.848 47.535 C 294.224 47.633,294.839 47.633,295.215 47.535 C 295.591 47.437,295.283 47.356,294.531 47.356 C 293.779 47.356,293.472 47.437,293.848 47.535 M298.145 47.926 C 298.521 48.024,299.136 48.024,299.512 47.926 C 299.888 47.827,299.580 47.747,298.828 47.747 C 298.076 47.747,297.769 47.827,298.145 47.926 M302.051 48.316 C 302.427 48.414,303.042 48.414,303.418 48.316 C 303.794 48.218,303.486 48.138,302.734 48.138 C 301.982 48.138,301.675 48.218,302.051 48.316 M345.313 48.154 C 345.313 48.213,346.675 49.576,348.340 51.182 L 351.367 54.102 348.447 51.074 C 345.735 48.262,345.313 47.869,345.313 48.154 M306.548 48.714 C 307.033 48.807,307.737 48.804,308.110 48.706 C 308.483 48.608,308.086 48.532,307.227 48.536 C 306.367 48.540,306.062 48.620,306.548 48.714 M311.626 49.104 C 312.112 49.198,312.815 49.194,313.188 49.097 C 313.562 48.999,313.164 48.922,312.305 48.927 C 311.445 48.931,311.140 49.011,311.626 49.104 M316.504 49.488 C 316.880 49.586,317.495 49.586,317.871 49.488 C 318.247 49.390,317.939 49.309,317.188 49.309 C 316.436 49.309,316.128 49.390,316.504 49.488 M322.168 49.885 C 322.651 49.978,323.442 49.978,323.926 49.885 C 324.409 49.792,324.014 49.716,323.047 49.716 C 322.080 49.716,321.685 49.792,322.168 49.885 M346.289 63.281 C 349.291 66.289,351.835 68.750,351.943 68.750 C 352.050 68.750,349.682 66.289,346.680 63.281 C 343.678 60.273,341.134 57.813,341.026 57.813 C 340.919 57.813,343.287 60.273,346.289 63.281 M359.570 62.500 C 362.142 65.078,364.333 67.188,364.441 67.188 C 364.548 67.188,362.532 65.078,359.961 62.500 C 357.390 59.922,355.198 57.813,355.090 57.813 C 354.983 57.813,356.999 59.922,359.570 62.500 M368.945 72.266 C 370.221 73.555,371.352 74.609,371.460 74.609 C 371.567 74.609,370.612 73.555,369.336 72.266 C 368.060 70.977,366.929 69.922,366.821 69.922 C 366.714 69.922,367.670 70.977,368.945 72.266 M356.445 73.828 C 357.938 75.332,359.247 76.563,359.354 76.563 C 359.461 76.563,358.328 75.332,356.836 73.828 C 355.344 72.324,354.035 71.094,353.927 71.094 C 353.820 71.094,354.953 72.324,356.445 73.828 M375.000 78.711 C 376.167 79.893,377.210 80.859,377.317 80.859 C 377.424 80.859,376.558 79.893,375.391 78.711 C 374.224 77.529,373.181 76.563,373.074 76.563 C 372.966 76.563,373.833 77.529,375.000 78.711 M364.063 81.836 C 365.229 83.018,366.272 83.984,366.380 83.984 C 366.487 83.984,365.620 83.018,364.453 81.836 C 363.286 80.654,362.243 79.688,362.136 79.688 C 362.029 79.688,362.896 80.654,364.063 81.836 M381.055 85.156 C 382.113 86.230,383.066 87.109,383.174 87.109 C 383.281 87.109,382.503 86.230,381.445 85.156 C 380.387 84.082,379.434 83.203,379.326 83.203 C 379.219 83.203,379.997 84.082,381.055 85.156 M370.508 88.672 C 371.566 89.746,372.519 90.625,372.627 90.625 C 372.734 90.625,371.957 89.746,370.898 88.672 C 369.840 87.598,368.887 86.719,368.779 86.719 C 368.672 86.719,369.450 87.598,370.508 88.672 M385.352 89.844 C 386.191 90.703,386.965 91.406,387.073 91.406 C 387.180 91.406,386.581 90.703,385.742 89.844 C 384.903 88.984,384.129 88.281,384.021 88.281 C 383.914 88.281,384.512 88.984,385.352 89.844 M387.891 92.700 C 387.891 92.768,388.462 93.339,389.160 93.970 L 390.430 95.117 389.282 93.848 C 388.213 92.664,387.891 92.399,387.891 92.700 M374.609 93.091 C 374.609 93.158,375.181 93.729,375.879 94.361 L 377.148 95.508 376.001 94.238 C 374.932 93.055,374.609 92.789,374.609 93.091 M379.688 98.633 C 380.416 99.385,381.101 100.000,381.208 100.000 C 381.315 100.000,380.807 99.385,380.078 98.633 C 379.349 97.881,378.665 97.266,378.558 97.266 C 378.450 97.266,378.959 97.881,379.688 98.633 M391.987 157.422 C 391.987 190.400,392.033 203.892,392.090 187.402 C 392.146 170.913,392.146 143.931,392.090 127.441 C 392.033 110.952,391.987 124.443,391.987 157.422 M285.938 103.320 C 287.104 104.502,288.147 105.469,288.255 105.469 C 288.362 105.469,287.495 104.502,286.328 103.320 C 285.161 102.139,284.118 101.172,284.011 101.172 C 283.904 101.172,284.771 102.139,285.938 103.320 M381.766 103.516 C 381.766 104.912,381.837 105.483,381.923 104.785 C 382.010 104.087,382.010 102.944,381.923 102.246 C 381.837 101.548,381.766 102.119,381.766 103.516 M244.917 109.668 L 238.867 115.820 245.020 109.770 C 250.735 104.150,251.349 103.516,251.069 103.516 C 251.013 103.516,248.245 106.284,244.917 109.668 M259.369 108.887 L 254.883 113.477 259.473 108.991 C 263.736 104.824,264.240 104.297,263.958 104.297 C 263.901 104.297,261.836 106.362,259.369 108.887 M243.159 125.488 L 236.914 131.836 243.262 125.591 C 249.159 119.788,249.786 119.141,249.507 119.141 C 249.451 119.141,246.594 121.997,243.159 125.488 M285.307 127.344 C 285.307 130.029,285.369 131.128,285.445 129.785 C 285.522 128.442,285.522 126.245,285.445 124.902 C 285.369 123.560,285.307 124.658,285.307 127.344 M295.071 127.148 C 295.072 129.727,295.135 130.730,295.211 129.379 C 295.288 128.028,295.287 125.919,295.210 124.692 C 295.133 123.465,295.070 124.570,295.071 127.148 M227.142 127.832 L 222.852 132.227 227.246 127.936 C 231.328 123.951,231.818 123.438,231.536 123.438 C 231.479 123.438,229.501 125.415,227.142 127.832 M200.977 133.594 C 201.816 134.453,202.590 135.156,202.698 135.156 C 202.805 135.156,202.206 134.453,201.367 133.594 C 200.528 132.734,199.754 132.031,199.646 132.031 C 199.539 132.031,200.137 132.734,200.977 133.594 M227.338 141.699 L 222.070 147.070 227.441 141.802 C 232.431 136.909,232.989 136.328,232.709 136.328 C 232.653 136.328,230.236 138.745,227.338 141.699 M209.180 146.094 C 206.608 148.672,204.592 150.781,204.700 150.781 C 204.807 150.781,206.999 148.672,209.570 146.094 C 212.142 143.516,214.158 141.406,214.050 141.406 C 213.943 141.406,211.751 143.516,209.180 146.094 M105.950 146.094 C 105.950 146.846,106.030 147.153,106.129 146.777 C 106.227 146.401,106.227 145.786,106.129 145.410 C 106.030 145.034,105.950 145.342,105.950 146.094 M212.298 157.129 L 208.008 161.523 212.402 157.233 C 216.484 153.248,216.974 152.734,216.693 152.734 C 216.635 152.734,214.658 154.712,212.298 157.129 M194.719 161.035 L 190.820 165.039 194.824 161.140 C 197.026 158.996,198.828 157.194,198.828 157.136 C 198.828 156.854,198.341 157.316,194.719 161.035 M267.358 165.332 L 266.211 166.602 267.480 165.454 C 268.179 164.823,268.750 164.252,268.750 164.185 C 268.750 163.883,268.428 164.149,267.358 165.332 M274.979 171.777 L 273.633 173.242 275.098 171.896 C 276.461 170.643,276.742 170.313,276.444 170.313 C 276.379 170.313,275.719 170.972,274.979 171.777 M177.637 174.885 C 178.120 174.978,178.911 174.978,179.395 174.885 C 179.878 174.792,179.482 174.716,178.516 174.716 C 177.549 174.716,177.153 174.792,177.637 174.885 M186.426 174.879 C 186.802 174.977,187.417 174.977,187.793 174.879 C 188.169 174.780,187.861 174.700,187.109 174.700 C 186.357 174.700,186.050 174.780,186.426 174.879 M238.969 178.011 C 239.455 178.104,240.158 178.101,240.532 178.003 C 240.905 177.905,240.508 177.829,239.648 177.833 C 238.789 177.837,238.483 177.917,238.969 178.011 M241.895 178.004 C 242.271 178.102,242.886 178.102,243.262 178.004 C 243.638 177.905,243.330 177.825,242.578 177.825 C 241.826 177.825,241.519 177.905,241.895 178.004 M237.221 187.789 C 238.464 187.867,240.398 187.866,241.518 187.787 C 242.638 187.709,241.621 187.645,239.258 187.646 C 236.895 187.647,235.978 187.711,237.221 187.789 M148.164 191.797 C 148.164 192.979,148.237 193.462,148.327 192.871 C 148.416 192.280,148.416 191.313,148.327 190.723 C 148.237 190.132,148.164 190.615,148.164 191.797 M116.783 200.115 C 117.251 200.735,117.136 201.006,115.791 202.459 L 114.271 204.102 116.012 202.446 C 117.714 200.827,117.737 200.774,117.004 200.102 C 116.286 199.444,116.277 199.444,116.783 200.115 M178.813 210.823 C 179.299 210.917,180.002 210.913,180.376 210.815 C 180.749 210.717,180.352 210.641,179.492 210.645 C 178.633 210.650,178.327 210.730,178.813 210.823 M296.769 227.626 C 297.462 227.712,298.693 227.713,299.503 227.629 C 300.313 227.544,299.746 227.474,298.242 227.472 C 296.738 227.470,296.075 227.539,296.769 227.626 M303.223 228.004 C 303.599 228.102,304.214 228.102,304.590 228.004 C 304.966 227.905,304.658 227.825,303.906 227.825 C 303.154 227.825,302.847 227.905,303.223 228.004 M91.978 230.176 L 90.039 232.227 92.090 230.288 C 93.218 229.222,94.141 228.299,94.141 228.237 C 94.141 227.946,93.779 228.270,91.978 230.176 M307.910 228.394 C 308.286 228.493,308.901 228.493,309.277 228.394 C 309.653 228.296,309.346 228.216,308.594 228.216 C 307.842 228.216,307.534 228.296,307.910 228.394 M381.777 233.594 C 381.777 235.420,381.844 236.167,381.927 235.254 C 382.009 234.341,382.009 232.847,381.927 231.934 C 381.844 231.021,381.777 231.768,381.777 233.594 M245.610 233.870 C 246.096 233.963,246.799 233.960,247.173 233.862 C 247.546 233.764,247.148 233.688,246.289 233.692 C 245.430 233.697,245.124 233.777,245.610 233.870 M354.785 233.863 C 355.161 233.961,355.776 233.961,356.152 233.863 C 356.528 233.765,356.221 233.684,355.469 233.684 C 354.717 233.684,354.409 233.765,354.785 233.863 M227.832 234.264 C 228.423 234.354,229.390 234.354,229.980 234.264 C 230.571 234.175,230.088 234.101,228.906 234.101 C 227.725 234.101,227.241 234.175,227.832 234.264 M238.574 234.267 C 239.272 234.354,240.415 234.354,241.113 234.267 C 241.812 234.180,241.240 234.109,239.844 234.109 C 238.447 234.109,237.876 234.180,238.574 234.267 M379.004 236.597 C 379.380 236.696,379.995 236.696,380.371 236.597 C 380.747 236.499,380.439 236.419,379.688 236.419 C 378.936 236.419,378.628 236.499,379.004 236.597 M300.684 237.776 C 301.167 237.869,301.958 237.869,302.441 237.776 C 302.925 237.683,302.529 237.606,301.563 237.606 C 300.596 237.606,300.200 237.683,300.684 237.776 M60.059 238.166 C 60.542 238.259,61.333 238.259,61.816 238.166 C 62.300 238.073,61.904 237.997,60.938 237.997 C 59.971 237.997,59.575 238.073,60.059 238.166 M391.527 240.039 C 391.529 241.328,391.602 241.808,391.689 241.106 C 391.776 240.404,391.774 239.350,391.685 238.763 C 391.596 238.176,391.525 238.750,391.527 240.039 M332.129 241.285 C 332.505 241.383,333.120 241.383,333.496 241.285 C 333.872 241.187,333.564 241.106,332.813 241.106 C 332.061 241.106,331.753 241.187,332.129 241.285 M248.926 243.629 C 249.302 243.727,249.917 243.727,250.293 243.629 C 250.669 243.530,250.361 243.450,249.609 243.450 C 248.857 243.450,248.550 243.530,248.926 243.629 M244.238 244.019 C 244.614 244.118,245.229 244.118,245.605 244.019 C 245.981 243.921,245.674 243.841,244.922 243.841 C 244.170 243.841,243.862 243.921,244.238 244.019 M235.844 244.417 C 236.330 244.510,237.033 244.507,237.407 244.409 C 237.780 244.311,237.383 244.235,236.523 244.239 C 235.664 244.243,235.358 244.323,235.844 244.417 M60.254 245.972 C 60.630 246.071,61.245 246.071,61.621 245.972 C 61.997 245.874,61.689 245.794,60.938 245.794 C 60.186 245.794,59.878 245.874,60.254 245.972 M30.469 249.805 C 29.520 250.771,28.831 251.563,28.939 251.563 C 29.046 251.563,29.911 250.771,30.859 249.805 C 31.808 248.838,32.497 248.047,32.389 248.047 C 32.282 248.047,31.418 248.838,30.469 249.805 M67.957 251.074 L 65.430 253.711 68.066 251.183 C 70.516 248.835,70.882 248.438,70.594 248.438 C 70.534 248.438,69.348 249.624,67.957 251.074 M137.012 251.057 C 137.495 251.150,138.286 251.150,138.770 251.057 C 139.253 250.964,138.857 250.888,137.891 250.888 C 136.924 250.888,136.528 250.964,137.012 251.057 M142.876 251.058 C 143.362 251.151,144.065 251.147,144.438 251.050 C 144.812 250.952,144.414 250.875,143.555 250.880 C 142.695 250.884,142.390 250.964,142.876 251.058 M59.863 253.405 C 60.454 253.494,61.421 253.494,62.012 253.405 C 62.603 253.315,62.119 253.242,60.938 253.242 C 59.756 253.242,59.272 253.315,59.863 253.405 M138.978 258.882 C 140.113 258.961,141.871 258.961,142.884 258.880 C 143.897 258.800,142.969 258.735,140.820 258.736 C 138.672 258.737,137.843 258.803,138.978 258.882 M125.391 264.258 C 124.442 265.225,123.753 266.016,123.861 266.016 C 123.968 266.016,124.832 265.225,125.781 264.258 C 126.730 263.291,127.419 262.500,127.311 262.500 C 127.204 262.500,126.339 263.291,125.391 264.258 M138.191 263.174 C 138.893 263.261,139.947 263.259,140.534 263.170 C 141.121 263.081,140.547 263.009,139.258 263.012 C 137.969 263.014,137.488 263.087,138.191 263.174 M158.577 264.941 C 160.196 266.666,160.547 266.976,160.547 266.683 C 160.547 266.620,159.712 265.785,158.691 264.827 L 156.836 263.086 158.577 264.941 M191.309 267.083 C 192.222 267.165,193.716 267.165,194.629 267.083 C 195.542 267.001,194.795 266.933,192.969 266.933 C 191.143 266.933,190.396 267.001,191.309 267.083 M86.465 276.563 C 86.465 278.389,86.532 279.136,86.614 278.223 C 86.696 277.310,86.696 275.815,86.614 274.902 C 86.532 273.989,86.465 274.736,86.465 276.563 M158.705 275.195 C 158.708 276.270,158.784 276.663,158.874 276.069 C 158.964 275.475,158.961 274.596,158.869 274.116 C 158.776 273.635,158.703 274.121,158.705 275.195 M192.097 274.892 C 192.799 274.979,193.854 274.978,194.441 274.888 C 195.028 274.799,194.453 274.728,193.164 274.730 C 191.875 274.733,191.395 274.806,192.097 274.892 M34.075 283.984 C 34.075 284.736,34.155 285.044,34.254 284.668 C 34.352 284.292,34.352 283.677,34.254 283.301 C 34.155 282.925,34.075 283.232,34.075 283.984 M86.036 285.352 C 86.040 286.211,86.120 286.517,86.214 286.031 C 86.307 285.545,86.304 284.842,86.206 284.468 C 86.108 284.095,86.032 284.492,86.036 285.352 M105.199 290.820 C 105.201 292.109,105.274 292.590,105.361 291.888 C 105.448 291.185,105.446 290.131,105.357 289.544 C 105.268 288.957,105.197 289.531,105.199 290.820 M97.410 295.313 C 97.410 297.568,97.475 298.491,97.554 297.363 C 97.633 296.235,97.633 294.390,97.554 293.262 C 97.475 292.134,97.410 293.057,97.410 295.313 M143.652 292.854 C 144.136 292.947,144.927 292.947,145.410 292.854 C 145.894 292.761,145.498 292.685,144.531 292.685 C 143.564 292.685,143.169 292.761,143.652 292.854 M105.190 300.586 C 105.193 301.660,105.269 302.053,105.358 301.459 C 105.448 300.866,105.446 299.987,105.353 299.506 C 105.260 299.026,105.187 299.512,105.190 300.586 M203.495 306.152 L 202.148 307.617 203.613 306.271 C 204.977 305.018,205.258 304.688,204.959 304.688 C 204.894 304.688,204.235 305.347,203.495 306.152 M9.481 307.422 C 9.481 308.389,9.558 308.784,9.651 308.301 C 9.744 307.817,9.744 307.026,9.651 306.543 C 9.558 306.060,9.481 306.455,9.481 307.422 M54.785 306.519 C 55.161 306.618,55.776 306.618,56.152 306.519 C 56.528 306.421,56.221 306.341,55.469 306.341 C 54.717 306.341,54.409 306.421,54.785 306.519 M17.309 309.570 C 17.311 310.859,17.384 311.340,17.471 310.638 C 17.558 309.935,17.556 308.881,17.467 308.294 C 17.377 307.707,17.306 308.281,17.309 309.570 M195.612 308.877 C 196.315 308.964,197.369 308.962,197.956 308.873 C 198.543 308.784,197.969 308.713,196.680 308.715 C 195.391 308.717,194.910 308.790,195.612 308.877 M17.319 316.406 C 17.319 318.018,17.388 318.677,17.472 317.871 C 17.556 317.065,17.556 315.747,17.472 314.941 C 17.388 314.136,17.319 314.795,17.319 316.406 M9.481 319.922 C 9.481 320.889,9.558 321.284,9.651 320.801 C 9.744 320.317,9.744 319.526,9.651 319.043 C 9.558 318.560,9.481 318.955,9.481 319.922 M246.184 319.531 C 246.184 320.283,246.265 320.591,246.363 320.215 C 246.461 319.839,246.461 319.224,246.363 318.848 C 246.265 318.472,246.184 318.779,246.184 319.531 M256.389 323.242 C 256.387 325.176,256.454 326.016,256.535 325.109 C 256.617 324.203,256.618 322.621,256.538 321.594 C 256.457 320.567,256.390 321.309,256.389 323.242 M248.549 323.242 C 248.552 324.316,248.628 324.709,248.718 324.116 C 248.808 323.522,248.805 322.643,248.712 322.163 C 248.620 321.682,248.546 322.168,248.549 323.242 M219.531 329.028 C 219.531 329.096,220.103 329.667,220.801 330.298 L 222.070 331.445 220.923 330.176 C 219.854 328.992,219.531 328.727,219.531 329.028 M93.094 333.594 C 93.094 334.990,93.165 335.562,93.251 334.863 C 93.338 334.165,93.338 333.022,93.251 332.324 C 93.165 331.626,93.094 332.197,93.094 333.594 M100.863 335.547 C 100.844 337.725,100.958 338.935,101.139 338.477 C 101.308 338.047,101.323 336.377,101.171 334.766 L 100.896 331.836 100.863 335.547 M240.405 333.301 L 239.258 334.570 240.527 333.423 C 241.226 332.792,241.797 332.221,241.797 332.153 C 241.797 331.852,241.475 332.117,240.405 333.301 M280.469 333.789 C 281.198 334.541,281.882 335.156,281.989 335.156 C 282.097 335.156,281.588 334.541,280.859 333.789 C 280.131 333.037,279.446 332.422,279.339 332.422 C 279.232 332.422,279.740 333.037,280.469 333.789 M93.090 340.820 C 93.092 342.109,93.165 342.590,93.252 341.888 C 93.339 341.185,93.337 340.131,93.248 339.544 C 93.159 338.957,93.088 339.531,93.090 340.820 M279.799 350.977 C 279.802 352.051,279.878 352.444,279.968 351.850 C 280.058 351.256,280.055 350.377,279.962 349.897 C 279.870 349.417,279.796 349.902,279.799 350.977 M289.544 356.641 C 289.544 357.393,289.624 357.700,289.722 357.324 C 289.821 356.948,289.821 356.333,289.722 355.957 C 289.624 355.581,289.544 355.889,289.544 356.641 M281.791 361.719 C 281.791 364.404,281.854 365.503,281.930 364.160 C 282.006 362.817,282.006 360.620,281.930 359.277 C 281.854 357.935,281.791 359.033,281.791 361.719 M289.552 365.820 C 289.556 366.680,289.636 366.985,289.729 366.499 C 289.823 366.013,289.819 365.310,289.722 364.937 C 289.624 364.563,289.547 364.961,289.552 365.820 M27.044 374.609 C 27.044 375.361,27.124 375.669,27.222 375.293 C 27.321 374.917,27.321 374.302,27.222 373.926 C 27.124 373.550,27.044 373.857,27.044 374.609 M19.231 375.781 C 19.231 376.533,19.312 376.841,19.410 376.465 C 19.508 376.089,19.508 375.474,19.410 375.098 C 19.312 374.722,19.231 375.029,19.231 375.781 M27.442 379.883 C 27.447 380.742,27.527 381.048,27.620 380.562 C 27.713 380.076,27.710 379.373,27.612 378.999 C 27.514 378.626,27.438 379.023,27.442 379.883 M19.638 381.641 C 19.638 382.607,19.714 383.003,19.807 382.520 C 19.900 382.036,19.900 381.245,19.807 380.762 C 19.714 380.278,19.638 380.674,19.638 381.641 " stroke="none" fill="#969696" fill-rule="evenodd"></path></g></svg>