<?xml version="1.0" standalone="no"?>
<!DOCTYPE svg PUBLIC "-//W3C//DTD SVG 20010904//EN"
 "http://www.w3.org/TR/2001/REC-SVG-20010904/DTD/svg10.dtd">
<svg version="1.0" xmlns="http://www.w3.org/2000/svg"
 width="300.000000pt" height="300.000000pt" viewBox="0 0 300.000000 300.000000"
 preserveAspectRatio="xMidYMid meet">
<metadata>
Created by potrace 1.10, written by Peter Selinger 2001-2011
</metadata>
<g transform="translate(0.000000,300.000000) scale(0.100000,-0.100000)"
fill="#000000" stroke="none">
<path d="M1005 2583 c-83 -11 -285 -91 -285 -113 0 -5 19 1 42 12 155 75 326
91 493 47 59 -16 140 -59 251 -132 55 -35 143 -88 197 -117 70 -37 97 -57 97
-71 0 -10 13 -56 30 -101 27 -76 28 -80 7 -53 -48 65 -86 102 -212 205 -144
118 -214 170 -227 170 -12 0 -10 -28 3 -52 7 -12 13 -39 15 -60 4 -57 44 -118
157 -235 l102 -106 -80 58 c-44 31 -92 63 -106 71 -18 9 -29 25 -33 46 -10 55
-52 134 -96 182 -41 45 -127 103 -137 93 -3 -3 8 -12 24 -20 69 -36 173 -182
173 -243 0 -12 7 -24 15 -28 16 -6 21 -36 7 -36 -14 0 -46 39 -39 47 8 8 -52
53 -71 53 -10 0 -12 -6 -7 -22 4 -13 10 -42 14 -65 8 -42 51 -110 78 -120 10
-4 14 -19 12 -51 -2 -29 1 -47 9 -50 7 -2 12 -10 12 -18 0 -12 -4 -12 -20 -4
-11 6 -19 16 -17 22 2 14 -89 67 -115 68 -24 0 -23 -9 4 -38 13 -13 23 -29 24
-35 0 -7 2 -22 2 -33 1 -12 12 -34 25 -50 20 -25 22 -40 22 -134 0 -97 2 -109
28 -152 30 -52 69 -84 113 -93 27 -5 26 -4 -9 15 -60 33 -81 91 -74 198 4 47
8 87 11 89 11 12 82 -57 140 -137 l64 -87 7 -145 8 -145 -34 -20 c-97 -58
-264 -243 -314 -348 -19 -40 -35 -80 -35 -89 0 -10 -43 -81 -95 -158 -52 -78
-95 -145 -95 -149 0 -24 22 2 95 113 44 67 85 126 91 133 6 6 14 27 18 47 10
55 61 149 113 209 67 76 185 180 232 204 l40 20 1 159 0 159 -71 99 c-63 88
-82 107 -156 154 -64 42 -88 64 -99 91 -8 19 -13 37 -11 39 2 2 27 -6 56 -18
41 -18 54 -20 60 -9 6 10 24 5 77 -22 50 -26 94 -60 157 -124 l88 -89 38 -118
c21 -65 41 -113 45 -108 3 5 -10 61 -29 123 -34 110 -37 115 -103 184 -38 38
-94 102 -126 142 -32 40 -94 101 -139 137 -81 64 -117 108 -117 141 0 13 10 9
40 -19 41 -37 67 -45 88 -24 31 31 300 -199 352 -302 26 -52 100 -278 100
-306 0 -8 5 -14 10 -14 29 0 -11 151 -79 296 -44 93 -139 213 -297 374 -99
100 -134 153 -134 201 0 20 3 19 35 -14 40 -41 70 -54 90 -37 23 19 194 -130
287 -248 125 -160 135 -180 158 -322 11 -69 20 -137 20 -152 0 -16 5 -28 10
-28 16 0 12 91 -10 207 -19 100 -25 114 -77 191 -90 134 -156 350 -123 402 7
11 11 8 19 -15 22 -63 36 -80 64 -78 24 2 31 -6 56 -55 43 -86 131 -337 147
-422 18 -92 19 -152 4 -299 -12 -133 -36 -210 -115 -376 -30 -65 -55 -120 -55
-122 0 -43 139 237 166 335 15 56 22 65 63 91 60 38 120 55 165 47 20 -4 36
-10 36 -14 0 -4 -18 -17 -40 -30 -44 -25 -67 -57 -49 -67 6 -4 -12 -28 -45
-57 -66 -59 -130 -146 -180 -244 -40 -78 -61 -100 -191 -200 -141 -108 -375
-342 -375 -374 0 -25 29 -4 65 47 58 83 186 207 305 297 141 106 176 141 204
202 68 148 158 248 314 350 105 69 137 104 93 104 -10 0 -31 -5 -48 -10 -23
-8 -36 -7 -59 5 -52 27 -118 15 -196 -34 l-46 -30 5 57 c3 31 9 84 13 117 19
144 -60 426 -193 690 -79 157 -104 198 -118 190 -5 -4 -9 -19 -9 -36 0 -47
-23 -110 -38 -104 -7 3 -77 46 -155 97 -204 132 -295 173 -431 197 -58 11
-130 12 -191 4z m567 -736 l20 -28 -64 32 c-62 30 -64 32 -60 66 l4 35 40 -39
c22 -21 49 -51 60 -66z"/>
<path d="M914 2386 c-27 -14 -88 -56 -135 -94 -68 -55 -84 -73 -82 -93 3 -23
2 -23 -12 -5 -15 20 -15 20 -15 0 0 -11 6 -28 13 -37 11 -15 24 -8 127 73 127
99 165 116 291 126 44 4 79 11 79 15 0 12 -67 29 -145 35 -62 5 -76 3 -121
-20z"/>
<path d="M521 2275 c-2 -85 15 -122 91 -202 l70 -74 -4 -64 c-4 -73 7 -79 15
-9 7 68 -6 100 -66 163 -67 70 -78 91 -93 171 l-12 65 -1 -50z"/>
<path d="M2020 2133 c1 -4 33 -28 71 -52 143 -89 227 -189 242 -287 9 -55 -7
-144 -37 -210 -28 -61 -20 -71 18 -21 42 54 56 101 56 180 0 128 -35 203 -129
271 -58 42 -221 131 -221 119z"/>
<path d="M883 2105 c-18 -8 -33 -19 -33 -25 0 -13 1 -13 45 6 27 11 56 14 99
10 l61 -5 -40 14 c-52 18 -92 18 -132 0z"/>
<path d="M985 2029 c-49 -27 -95 -49 -101 -49 -6 0 -19 17 -27 38 l-17 37 6
-57 5 -57 -38 -10 c-21 -6 -47 -11 -58 -12 -17 0 -16 -2 5 -10 59 -24 143 11
260 109 30 25 57 47 59 49 2 2 2 5 0 7 -2 2 -44 -18 -94 -45z"/>
<path d="M627 1633 c-9 -15 -37 -117 -37 -134 0 -25 60 -49 123 -49 46 0 59
-4 71 -22 l16 -22 0 21 c0 30 -28 43 -89 43 -63 0 -101 17 -101 44 0 12 7 45
14 74 13 48 14 63 3 45z"/>
<path d="M735 1511 l-30 -7 25 -7 c43 -12 80 -8 80 8 0 16 -22 18 -75 6z"/>
<path d="M848 1353 c-37 -9 -10 -57 38 -69 28 -7 29 -12 9 -38 -8 -11 -15 -28
-15 -37 0 -23 46 -59 76 -59 35 0 87 52 122 120 l30 60 -37 -6 c-21 -3 -60 1
-91 9 -69 19 -110 25 -132 20z m170 -64 c28 -11 28 -23 0 -51 -22 -22 -23 -22
-26 -3 -6 28 -21 45 -42 45 -10 0 -24 7 -31 16 -12 15 -9 16 31 9 25 -4 55
-11 68 -16z m-38 -38 c0 -23 -14 -41 -30 -41 -25 0 -35 18 -20 35 14 16 50 20
50 6z"/>
<path d="M1030 1077 c0 -26 34 -88 65 -117 48 -45 115 -28 248 62 32 22 57 42
54 44 -2 2 -39 -16 -83 -41 -90 -52 -143 -69 -184 -60 -35 8 -53 27 -79 85
-11 25 -21 37 -21 27z"/>
</g>
</svg>
